<svg version="1.1" id="Layer_1" xmlns="http://www.w3.org/2000/svg" xmlns:xlink="http://www.w3.org/1999/xlink" x="0px" y="0px"
	 width="884px" height="191px" viewBox="0 0 884 191" enable-background="new 0 0 884 191" xml:space="preserve">
<g>
	<g>
		<g opacity="0.83">
			<g>
				<g>
					
						<linearGradient id="SVGID_1_" gradientUnits="userSpaceOnUse" x1="-356.478" y1="696.0977" x2="-355.478" y2="696.0977" gradientTransform="matrix(81.4406 0 0 -81.4406 29090.1875 56794)">
						<stop  offset="0" style="stop-color:#FFFFFF"/>
						<stop  offset="0" style="stop-color:#4673B9"/>
						<stop  offset="0.2632" style="stop-color:#4471B8"/>
						<stop  offset="0.5089" style="stop-color:#3D6BB4"/>
						<stop  offset="0.7476" style="stop-color:#3060AD"/>
						<stop  offset="0.9808" style="stop-color:#1D52A4"/>
						<stop  offset="1" style="stop-color:#1B51A3"/>
					</linearGradient>
					<rect x="58.394" y="52.937" fill="url(#SVGID_1_)" width="81.45" height="100.949"/>
					<path fill="none" d="M134.955,58.368c1.057,0.1,2.118,0.309,3.17,0.273c1.369-0.047,1.719,0.542,1.709,1.819
						c-0.104,13.367-0.18,26.733-0.23,40.099c-0.058,15.395-0.081,30.787-0.122,46.182c-0.005,2.109-0.01,2.112-2.044,2.24
						c-9.642,0.607-19.284,1.215-28.926,1.819c-9.693,0.609-19.387,1.207-29.078,1.827c-5.553,0.354-11.102,0.751-16.653,1.116
						c-2.198,0.143-2.25,0.082-2.265-2.064c-0.006-0.81-0.01-1.621-0.011-2.43c-0.001-2.181,0-2.181-2.111-2.203
						c0.023-0.45,0.392-0.575,0.713-0.681c0.712-0.236,0.862-0.78,0.883-1.426c0.021-0.605,0.014-1.214,0.014-1.82
						c0.001-28.594,0-57.187,0.001-85.779c0-4.217,0.325-4.403,4.552-4.118c5.194,0.349,10.392,0.66,15.585,1.031
						c5.294,0.378,10.59,0.722,15.885,1.081c5.245,0.357,10.492,0.697,15.738,1.038c5.345,0.347,10.693,0.681,16.035,1.094
						c1.814,0.141,3.636,0.19,5.446,0.402C133.849,57.938,134.465,57.921,134.955,58.368"/>
				</g>
				<rect x="58.394" y="53.135" fill="none" width="81.44" height="100.654"/>
			</g>
		</g>
		<g opacity="0.7">
			<g>
				<g>
					
						<linearGradient id="SVGID_2_" gradientUnits="userSpaceOnUse" x1="-356.4873" y1="696.0967" x2="-355.4863" y2="696.0967" gradientTransform="matrix(82.8656 0 0 -82.8656 29592.625 57779.125)">
						<stop  offset="0" style="stop-color:#FFFFFF"/>
						<stop  offset="0" style="stop-color:#4673B9"/>
						<stop  offset="0.2632" style="stop-color:#4471B8"/>
						<stop  offset="0.5089" style="stop-color:#3D6BB4"/>
						<stop  offset="0.7476" style="stop-color:#3060AD"/>
						<stop  offset="0.9808" style="stop-color:#1D52A4"/>
						<stop  offset="1" style="stop-color:#1B51A3"/>
					</linearGradient>
					<rect x="52.019" y="45.9" fill="url(#SVGID_2_)" width="82.941" height="101.594"/>
					<path fill="none" d="M134.955,58.368c-4.226-0.141-8.438-0.484-12.648-0.872c-1.653-0.154-3.314-0.142-4.976-0.291
						c-3.911-0.354-7.851-0.376-11.767-0.679c-6.173-0.478-12.351-0.859-18.531-1.239c-4.317-0.265-8.628-0.646-12.95-0.888
						c-3.613-0.203-7.219-0.547-10.822-0.889c-2.293-0.218-2.761,0.159-2.761,2.511c0,29.318,0,58.637,0,87.956
						c0,2.476,0,2.476-2.106,3.07c-1.455,0.118-2.91,0.23-4.363,0.355c-1.035,0.092-1.407-0.363-1.454-1.401
						c-0.077-1.674,0.381-3.384-0.279-5.025c-0.279-0.52-0.198-1.086-0.198-1.639c0.008-29.779,0-59.557,0.003-89.336
						c0.001-3.962,0.292-4.101,4.318-3.798c5.044,0.379,10.091,0.735,15.14,1.062c4.947,0.32,9.89,0.721,14.836,1.062
						c4.946,0.341,9.892,0.691,14.837,1.04c5.198,0.366,10.399,0.678,15.593,1.106c3.226,0.266,6.465,0.35,9.686,0.701
						c0.599,0.066,1.229,0.018,1.704,0.501c1.692,0.201,3.387,0.581,5.074,0.546c1.354-0.027,1.669,0.512,1.663,1.64
						C134.944,55.363,134.954,56.866,134.955,58.368"/>
				</g>
				<rect x="52.088" y="46.101" fill="none" width="82.866" height="101.313"/>
			</g>
		</g>
		<rect x="-314.229" y="-513.337" fill="none" width="1601.093" height="1201.093"/>
	</g>
	<g>
		
			<linearGradient id="SVGID_3_" gradientUnits="userSpaceOnUse" x1="-356.4775" y1="696.1035" x2="-355.4766" y2="696.1035" gradientTransform="matrix(82.3549 0 0 -82.3549 29403.5 57418.4375)">
			<stop  offset="0" style="stop-color:#FFFFFF"/>
			<stop  offset="0" style="stop-color:#4673B9"/>
			<stop  offset="0.2632" style="stop-color:#4471B8"/>
			<stop  offset="0.5089" style="stop-color:#3D6BB4"/>
			<stop  offset="0.7476" style="stop-color:#3060AD"/>
			<stop  offset="0.9808" style="stop-color:#1D52A4"/>
			<stop  offset="1" style="stop-color:#1B51A3"/>
		</linearGradient>
		<rect x="45.859" y="40.445" fill="url(#SVGID_3_)" width="82.411" height="100.951"/>
		<path fill="none" d="M45.916,42.64v96.462c0,0.305,0.014,0.609-0.003,0.911c-0.053,0.99,0.437,1.383,1.388,1.313
			c1.666-0.122,3.332-0.234,4.998-0.351c0.439-0.639,0.296-1.366,0.296-2.064c0.004-30.118,0.003-60.234,0.004-90.351
			c0-2.045,0.03-2.158,2.006-2.021c3.113,0.217,6.222,0.454,9.338,0.637c5.118,0.298,10.222,0.833,15.34,1.142
			c3.569,0.216,7.136,0.464,10.701,0.699c5.57,0.368,11.134,0.824,16.707,1.171c3.063,0.191,6.128,0.398,9.185,0.643
			c4.112,0.333,8.222,0.637,12.341,0.845c0.016-1.214,0.044-2.429,0.047-3.644c0.007-2.524,0.002-2.516-2.604-2.679
			c-11.211-0.702-22.422-1.409-33.634-2.113c-14.595-0.917-29.19-1.833-43.785-2.747c-0.435-0.027-0.788-0.048-1.075-0.048
			C45.942,40.445,45.916,40.819,45.916,42.64"/>
	</g>
	<g>
		<path fill="#FBFCFC" d="M69.36,135.602c-0.02-1.774,0.236-3.523,0.457-5.28c0.147-1.173,0.599-1.59,1.812-1.623
			c7.69-0.21,15.378-0.499,23.067-0.763c11.381-0.39,22.764-0.745,34.143-1.212c1.47-0.06,1.903,0.424,2.083,1.74
			c0.441,3.235,0.448,6.441-0.112,9.665c-0.157,0.898-0.502,1.119-1.355,1.161c-6.923,0.349-13.842,0.753-20.763,1.129
			c-12.328,0.671-24.657,1.318-36.982,2.032c-1.193,0.068-1.742-0.148-1.904-1.415C69.575,139.227,69.33,137.429,69.36,135.602"/>
		<path fill="#FBFCFC" d="M100.302,111.833c-9.516,0-19.032-0.026-28.548,0.032c-1.259,0.008-1.774-0.32-1.969-1.586
			c-0.55-3.585-0.55-7.137,0.048-10.718c0.192-1.15,0.63-1.472,1.762-1.453c6.226,0.107,12.452,0.127,18.678,0.194
			c12.907,0.136,25.814,0.306,38.721,0.387c1.307,0.008,1.718,0.407,1.895,1.63c0.467,3.234,0.487,6.438-0.049,9.664
			c-0.166,1.003-0.518,1.296-1.536,1.291c-9.667-0.041-19.335-0.024-29.002-0.024C100.302,111.444,100.302,111.64,100.302,111.833"
			/>
		<path fill="#FBFCFC" d="M100.467,82.213c-7.535-0.252-15.07-0.502-22.604-0.759c-2.225-0.076-4.449-0.205-6.674-0.243
			c-0.808-0.015-1.125-0.283-1.282-1.099c-0.747-3.875-0.715-7.729,0.008-11.603c0.166-0.891,0.59-1.008,1.349-0.964
			c9.848,0.565,19.696,1.121,29.545,1.66c8.283,0.454,16.569,0.882,24.852,1.323c1.011,0.054,2.031,0.242,3.027,0.151
			c1.644-0.15,2.134,0.636,2.295,2.12c0.341,3.137,0.387,6.243-0.178,9.363c-0.163,0.901-0.485,1.145-1.367,1.11
			c-6.572-0.261-13.145-0.509-19.72-0.691c-3.082-0.086-6.168-0.014-9.251-0.014C100.467,82.448,100.467,82.331,100.467,82.213"/>
		<path fill="#616161" d="M172.168,108.256l-22.696-35.629h17.009c1.107,0,1.92,0.144,2.441,0.428
			c0.52,0.285,0.981,0.764,1.384,1.434L184.9,99.197c0.168-0.435,0.36-0.854,0.579-1.257c0.218-0.403,0.461-0.822,0.73-1.258
			l12.782-21.943c0.839-1.408,1.979-2.113,3.422-2.113h16.305l-22.998,34.875l23.502,38.448h-17.01
			c-1.107,0-2.005-0.268-2.692-0.805c-0.688-0.536-1.233-1.174-1.636-1.912l-14.695-25.665c-0.269,0.738-0.571,1.376-0.906,1.912
			l-13.688,23.753c-0.403,0.705-0.94,1.334-1.611,1.887c-0.671,0.555-1.509,0.83-2.516,0.83h-15.902L172.168,108.256z"/>
		<path fill="#616161" d="M242.773,121.441v24.509h-17.01V72.627h25.867c5.166,0,9.603,0.612,13.311,1.836
			c3.707,1.226,6.76,2.912,9.159,5.058c2.399,2.148,4.169,4.681,5.309,7.599c1.14,2.919,1.711,6.073,1.711,9.462
			c0,3.656-0.587,7.011-1.761,10.063c-1.175,3.055-2.969,5.67-5.385,7.852c-2.415,2.181-5.477,3.883-9.184,5.107
			c-3.707,1.226-8.095,1.837-13.16,1.837H242.773z M242.773,108.608h8.857c4.429,0,7.616-1.057,9.562-3.171
			c1.945-2.112,2.918-5.064,2.918-8.855c0-1.678-0.251-3.204-0.754-4.58c-0.503-1.375-1.267-2.559-2.29-3.548
			c-1.024-0.99-2.315-1.753-3.875-2.29c-1.56-0.536-3.414-0.805-5.561-0.805h-8.857V108.608z"/>
		<polygon fill="#616161" points="337.181,72.626 337.181,85.711 307.087,85.711 307.087,102.821 330.136,102.821 330.136,115.402 
			307.087,115.402 307.087,132.865 337.181,132.865 337.181,145.949 289.976,145.949 289.976,72.626 		"/>
		<path fill="#616161" d="M363.852,118.825v27.125h-17.01V72.626h23.855c5.3,0,9.82,0.546,13.562,1.636
			c3.74,1.091,6.793,2.609,9.158,4.555c2.366,1.945,4.084,4.244,5.159,6.894c1.074,2.651,1.611,5.535,1.611,8.656
			c0,2.382-0.32,4.629-0.957,6.743c-0.637,2.113-1.585,4.068-2.844,5.862c-1.258,1.795-2.801,3.397-4.629,4.807
			c-1.829,1.408-3.933,2.566-6.316,3.472c1.14,0.572,2.206,1.276,3.195,2.115c0.99,0.838,1.854,1.86,2.592,3.068l15.602,25.516
			h-15.401c-2.851,0-4.898-1.074-6.139-3.222l-12.178-21.286c-0.537-0.94-1.166-1.611-1.888-2.015
			c-0.721-0.401-1.736-0.603-3.045-0.603H363.852z M363.852,107.099h6.845c2.314,0,4.285-0.293,5.912-0.881
			c1.627-0.587,2.961-1.399,4.001-2.439s1.794-2.257,2.264-3.649c0.47-1.392,0.706-2.894,0.706-4.505
			c0-3.22-1.049-5.736-3.146-7.547c-2.097-1.813-5.343-2.718-9.737-2.718h-6.845V107.099z"/>
		<polygon fill="#616161" points="463.997,72.626 463.997,86.113 443.364,86.113 443.364,145.949 426.354,145.949 426.354,86.113 
			405.721,86.113 405.721,72.626 		"/>
		<path fill="#616161" d="M530.124,85.107c-0.303,0.503-0.623,0.881-0.957,1.133c-0.336,0.251-0.771,0.377-1.309,0.377
			c-0.57,0-1.232-0.284-1.988-0.856c-0.754-0.57-1.711-1.199-2.867-1.886c-1.158-0.688-2.551-1.317-4.178-1.888
			c-1.628-0.57-3.598-0.856-5.913-0.856c-2.181,0-4.11,0.294-5.788,0.881s-3.078,1.384-4.201,2.391
			c-1.125,1.006-1.972,2.188-2.541,3.548c-0.572,1.357-0.855,2.826-0.855,4.402c0,2.014,0.494,3.684,1.484,5.008
			c0.988,1.325,2.297,2.458,3.925,3.396c1.626,0.94,3.473,1.753,5.536,2.441c2.063,0.688,4.177,1.4,6.339,2.138
			c2.165,0.739,4.278,1.57,6.343,2.492c2.063,0.923,3.907,2.089,5.535,3.498c1.627,1.409,2.936,3.136,3.926,5.182
			c0.988,2.047,1.484,4.564,1.484,7.549c0,3.154-0.537,6.115-1.609,8.884c-1.074,2.768-2.643,5.176-4.707,7.222
			c-2.063,2.047-4.596,3.657-7.598,4.831c-3.004,1.174-6.417,1.761-10.242,1.761c-4.663,0-8.916-0.847-12.757-2.542
			c-3.842-1.693-7.122-3.983-9.839-6.869l2.818-4.63c0.269-0.369,0.596-0.679,0.98-0.93c0.387-0.252,0.814-0.378,1.284-0.378
			c0.704,0,1.509,0.378,2.415,1.133s2.039,1.585,3.397,2.49s3.003,1.735,4.933,2.49c1.928,0.756,4.285,1.134,7.07,1.134
			c2.314,0,4.378-0.318,6.189-0.956c1.813-0.639,3.348-1.535,4.605-2.693s2.221-2.542,2.893-4.152
			c0.672-1.609,1.008-3.403,1.008-5.385c0-2.18-0.496-3.966-1.486-5.359c-0.988-1.392-2.289-2.558-3.898-3.496
			c-1.611-0.94-3.448-1.736-5.512-2.392c-2.063-0.653-4.177-1.325-6.34-2.013c-2.164-0.688-4.278-1.485-6.342-2.391
			c-2.063-0.905-3.9-2.079-5.51-3.522c-1.611-1.442-2.912-3.246-3.9-5.41c-0.99-2.164-1.484-4.839-1.484-8.027
			c0-2.549,0.494-5.015,1.484-7.396c0.988-2.382,2.423-4.496,4.303-6.341c1.879-1.845,4.201-3.322,6.97-4.429
			c2.768-1.107,5.946-1.661,9.536-1.661c4.026,0,7.699,0.638,11.021,1.913s6.223,3.12,8.707,5.535L530.124,85.107z"/>
		<path fill="#616161" d="M574.309,117.264v28.687h-9.713v-28.687l-26.421-43.43h8.556c0.872,0,1.56,0.219,2.063,0.655
			c0.503,0.436,0.938,0.973,1.308,1.61l16.507,28.03c0.671,1.175,1.233,2.282,1.686,3.322c0.453,1.041,0.864,2.063,1.233,3.07
			c0.369-1.039,0.771-2.08,1.208-3.12c0.436-1.039,0.989-2.13,1.66-3.272l16.457-28.03c0.302-0.536,0.712-1.048,1.232-1.535
			c0.52-0.487,1.199-0.73,2.037-0.73h8.657L574.309,117.264z"/>
		<path fill="#616161" d="M646.775,85.107c-0.303,0.503-0.622,0.881-0.957,1.133c-0.335,0.251-0.772,0.377-1.308,0.377
			c-0.571,0-1.233-0.284-1.988-0.856c-0.755-0.57-1.711-1.199-2.868-1.886c-1.158-0.688-2.551-1.317-4.178-1.888
			c-1.627-0.57-3.598-0.856-5.913-0.856c-2.181,0-4.109,0.294-5.787,0.881s-3.078,1.384-4.202,2.391
			c-1.124,1.006-1.971,2.188-2.541,3.548c-0.571,1.357-0.855,2.826-0.855,4.402c0,2.014,0.493,3.684,1.484,5.008
			c0.989,1.325,2.298,2.458,3.927,3.396c1.625,0.94,3.471,1.753,5.534,2.441c2.063,0.688,4.177,1.4,6.341,2.138
			c2.164,0.739,4.277,1.57,6.341,2.492c2.063,0.923,3.907,2.089,5.536,3.498c1.627,1.409,2.936,3.136,3.925,5.182
			c0.988,2.047,1.485,4.564,1.485,7.549c0,3.154-0.537,6.115-1.61,8.884c-1.074,2.768-2.643,5.176-4.706,7.222
			c-2.063,2.047-4.596,3.657-7.599,4.831s-6.417,1.761-10.241,1.761c-4.664,0-8.916-0.847-12.758-2.542
			c-3.842-1.693-7.12-3.983-9.838-6.869l2.818-4.63c0.268-0.369,0.595-0.679,0.98-0.93c0.386-0.252,0.813-0.378,1.284-0.378
			c0.704,0,1.51,0.378,2.415,1.133c0.906,0.755,2.038,1.585,3.397,2.49c1.358,0.905,3.002,1.735,4.932,2.49
			c1.928,0.756,4.285,1.134,7.07,1.134c2.315,0,4.379-0.318,6.19-0.956c1.812-0.639,3.347-1.535,4.604-2.693
			s2.222-2.542,2.894-4.152c0.67-1.609,1.007-3.403,1.007-5.385c0-2.18-0.496-3.966-1.485-5.359
			c-0.989-1.392-2.289-2.558-3.899-3.496c-1.61-0.94-3.447-1.736-5.511-2.392c-2.063-0.653-4.177-1.325-6.341-2.013
			s-4.277-1.485-6.341-2.391s-3.9-2.079-5.511-3.522c-1.61-1.442-2.911-3.246-3.9-5.41c-0.99-2.164-1.484-4.839-1.484-8.027
			c0-2.549,0.494-5.015,1.484-7.396c0.989-2.382,2.424-4.496,4.303-6.341c1.879-1.845,4.202-3.322,6.97-4.429
			c2.769-1.107,5.946-1.661,9.537-1.661c4.025,0,7.699,0.638,11.021,1.913s6.224,3.12,8.707,5.535L646.775,85.107z"/>
		<polygon fill="#616161" points="712.298,73.834 712.298,82.037 688.998,82.037 688.998,145.949 679.234,145.949 679.234,82.037 
			655.834,82.037 655.834,73.834 		"/>
		<polygon fill="#616161" points="767.001,73.834 767.001,81.785 732.378,81.785 732.378,105.739 760.408,105.739 760.408,113.39 
			732.378,113.39 732.378,137.998 767.001,137.998 767.001,145.949 722.563,145.949 722.563,73.834 		"/>
		<path fill="#616161" d="M817.753,122.423c0.352,0.89,0.695,1.786,1.031,2.692c0.335-0.938,0.688-1.837,1.057-2.692
			s0.788-1.72,1.259-2.592l24.407-44.337c0.436-0.77,0.889-1.24,1.358-1.408s1.141-0.252,2.014-0.252h7.196v72.115h-8.556V92.957
			c0-0.704,0.017-1.459,0.05-2.264c0.034-0.805,0.084-1.627,0.151-2.466l-24.709,45.091c-0.839,1.509-2.013,2.264-3.522,2.264
			h-1.409c-1.511,0-2.685-0.755-3.523-2.264l-25.263-45.242c0.101,0.872,0.176,1.729,0.227,2.567
			c0.049,0.839,0.075,1.609,0.075,2.313v52.992h-8.555V73.834h7.196c0.871,0,1.543,0.084,2.013,0.252s0.923,0.638,1.358,1.408
			l24.911,44.387C816.989,120.688,817.399,121.534,817.753,122.423"/>
		<rect x="-314.229" y="-513.337" fill="none" width="1601.093" height="1201.093"/>
	</g>
	<rect x="-314.229" y="-513.334" fill="none" width="1601.09" height="1201.09"/>
</g>
</svg>